# xmcd
#
# Track frame offsets:
#	150
#	16782
#	34132
#	50072
#	61092
#	69192
#	87806
#	99300
#	113113
#	130995
#	148947
#	165435
#	185033
#
# Disc length: 2683 seconds
#
# Revision: 0
# Processed by: cddbd v1.5.1PL2 Copyright (c) Steve Scherf et al.
# Submitted via: EasyCDDAExtractor 9.1.3.1
#
DISCID=aa0a790d
DTITLE=Wayne Henderson - Les Pik
DYEAR=2001
DGENRE=Bluegrass
TTITLE0=Florida Blues
TTITLE1=Take Me Out To The Ballgame
TTITLE2=Miss Mississippi And You
TTITLE3=Red Apple Rag
TTITLE4=Buckdancers Choice
TTITLE5=Hobo Meditation
TTITLE6=Cincinnati Rag
TTITLE7=Bye Bye Blues
TTITLE8=Darlin' Nellie Gray
TTITLE9=Done Gone
TTITLE10=Oh. Lady Be Good
TTITLE11=Remington Ride
TTITLE12=Grey Eagle
EXTD=
EXTT0=
EXTT1=
EXTT2=
EXTT3=
EXTT4=
EXTT5=
EXTT6=
EXTT7=
EXTT8=
EXTT9=
EXTT10=
EXTT11=
EXTT12=
PLAYORDER=
